<svg width="61" height="36" viewBox="0 0 61 36" fill="none" xmlns="http://www.w3.org/2000/svg">
<g clip-path="url(#clip0_6_109)">
<path d="M0.916363 2.44644C0.706509 2.44644 0.519143 2.37063 0.35426 2.219C0.204367 2.05221 0.12942 1.85509 0.12942 1.62765C0.12942 1.43053 0.189377 1.25615 0.309292 1.10452C0.444196 0.952895 0.616575 0.861916 0.826425 0.831591C1.12621 0.786102 1.48596 0.733033 1.90566 0.672379C2.34035 0.611729 2.79003 0.551075 3.2547 0.490426C3.73436 0.41461 4.20652 0.338796 4.6712 0.262981C5.15088 0.172004 5.58556 0.0886085 5.97528 0.0127939C6.26005 -0.0326952 6.49991 0.0431193 6.69477 0.240238C6.76971 0.316052 6.82216 0.40703 6.85215 0.51317C6.8971 0.619309 6.9046 0.733033 6.87462 0.854336C6.85965 1.03629 6.84464 1.24099 6.82967 1.46843C6.82967 1.69588 6.82967 1.90058 6.82967 2.08253V6.38122C7.39925 5.92633 7.95386 5.60792 8.49349 5.42595C9.0481 5.22883 9.64016 5.13026 10.2697 5.13026C11.5438 5.13026 12.5256 5.48659 13.2151 6.19925C13.9046 6.89675 14.2494 7.87478 14.2494 9.1333V14.3645C14.2494 14.5464 14.2569 14.736 14.2719 14.9331C14.2869 15.1302 14.3243 15.3122 14.3843 15.479C14.4443 15.6458 14.5342 15.7898 14.6541 15.9111C14.774 16.0172 14.9389 16.0855 15.1488 16.1158C15.3436 16.1461 15.5085 16.2295 15.6434 16.366C15.7783 16.4873 15.8458 16.6693 15.8458 16.9119C15.8458 17.0635 15.8158 17.1924 15.7558 17.2985C15.6959 17.3895 15.6209 17.4653 15.531 17.526C15.4411 17.5715 15.3436 17.6018 15.2387 17.6169C15.1488 17.6321 15.0738 17.6397 15.0139 17.6397C14.759 17.6397 14.4592 17.6321 14.1145 17.6169C13.7847 17.6169 13.4549 17.6094 13.1252 17.5942C12.7954 17.5791 12.4881 17.5639 12.2034 17.5487C11.9335 17.5487 11.7237 17.5487 11.5738 17.5487C11.4089 17.5487 11.1916 17.5487 10.9218 17.5487C10.6669 17.5639 10.4046 17.5791 10.1348 17.5942C9.865 17.6094 9.60271 17.6169 9.34788 17.6169C9.10807 17.6321 8.9057 17.6397 8.74082 17.6397C8.53094 17.6397 8.35109 17.5791 8.20118 17.4577C8.06628 17.3213 7.99885 17.1393 7.99885 16.9119C7.99885 16.7147 8.0438 16.5555 8.13375 16.4342C8.22365 16.2978 8.38107 16.1916 8.60592 16.1158C8.83076 16.04 8.95816 15.8808 8.98814 15.6382C9.03309 15.3956 9.05557 15.0696 9.05557 14.6602V8.74665C9.05557 8.23111 8.98814 7.9051 8.85324 7.76862C8.73331 7.63217 8.5909 7.56393 8.42602 7.56393C8.20118 7.56393 7.93138 7.6625 7.61659 7.85962C7.30184 8.0567 7.0395 8.29931 6.82967 8.58744V14.6602C6.82967 15.0696 6.84464 15.3956 6.87462 15.6382C6.91962 15.8808 7.04701 16.04 7.25684 16.1158C7.4967 16.1916 7.66158 16.2978 7.75153 16.4342C7.84143 16.5555 7.88643 16.7147 7.88643 16.9119C7.88643 17.1393 7.81145 17.3213 7.66158 17.4577C7.52668 17.5791 7.3543 17.6397 7.14442 17.6397C6.99455 17.6397 6.79218 17.6321 6.53735 17.6169C6.28257 17.6169 6.02023 17.6094 5.75044 17.5942C5.48064 17.5791 5.2108 17.5639 4.941 17.5487C4.68617 17.5487 4.47634 17.5487 4.31145 17.5487C4.16156 17.5487 3.95171 17.5487 3.6819 17.5487C3.41209 17.5639 3.1198 17.5791 2.80502 17.5942C2.49025 17.6094 2.16797 17.6169 1.83821 17.6169C1.52343 17.6321 1.23863 17.6397 0.983813 17.6397C0.923857 17.6397 0.841416 17.6321 0.736491 17.6169C0.646553 17.6018 0.556618 17.5715 0.46668 17.526C0.376744 17.4653 0.294303 17.3895 0.219356 17.2985C0.159399 17.1924 0.12942 17.0635 0.12942 16.9119C0.12942 16.6541 0.196872 16.4646 0.331777 16.3433C0.46668 16.222 0.631566 16.1461 0.826425 16.1158C1.0063 16.0855 1.1487 16.0172 1.25362 15.9111C1.37354 15.7898 1.45598 15.6458 1.50095 15.479C1.56091 15.3122 1.59838 15.1302 1.61337 14.9331C1.62835 14.736 1.63585 14.5464 1.63585 14.3645V3.42445C1.63585 3.13636 1.58339 2.90133 1.47846 2.71938C1.38853 2.53742 1.21615 2.44644 0.961328 2.44644H0.916363Z" fill="#333C4D"/>
<path d="M23.3712 6.67689C23.1464 6.67689 22.944 6.74514 22.7642 6.88158C22.5993 7.01806 22.4569 7.19999 22.337 7.42743C22.232 7.65488 22.1496 7.92025 22.0896 8.2235C22.0297 8.51158 21.9922 8.80727 21.9772 9.11052H24.2481C24.368 9.11052 24.458 9.0802 24.5179 9.01956C24.5929 8.95892 24.6304 8.75419 24.6304 8.40546C24.6304 8.19318 24.6078 7.98849 24.5629 7.79137C24.5179 7.57908 24.443 7.38955 24.3381 7.22275C24.2481 7.05594 24.1207 6.92706 23.9558 6.8361C23.8059 6.72993 23.6111 6.67689 23.3712 6.67689ZM23.6635 17.9126C22.7342 17.9126 21.8349 17.7686 20.9654 17.4805C20.1111 17.1772 19.3541 16.7451 18.6946 16.184C18.035 15.623 17.5104 14.9407 17.1207 14.137C16.731 13.3334 16.5361 12.4312 16.5361 11.4305C16.5361 10.5207 16.701 9.68674 17.0307 8.9286C17.3755 8.15525 17.8477 7.49568 18.4472 6.94982C19.0618 6.38881 19.7813 5.94907 20.6057 5.63062C21.4451 5.31221 22.3595 5.14541 23.3488 5.13025C24.0683 5.13025 24.8027 5.23641 25.5522 5.4487C26.3017 5.66099 26.9762 5.97939 27.5758 6.40397C28.1903 6.81334 28.685 7.32887 29.0597 7.95057C29.4494 8.57227 29.6368 9.30009 29.6218 10.134C29.6218 10.3008 29.5544 10.4449 29.4194 10.5662C29.2995 10.6875 29.1571 10.7481 28.9923 10.7481H21.9547V10.7936C21.9547 11.203 21.9997 11.6428 22.0896 12.1128C22.1946 12.5829 22.3669 13.0226 22.6068 13.432C22.8616 13.8262 23.1989 14.1598 23.6186 14.4327C24.0532 14.6905 24.6004 14.8194 25.2599 14.8194C25.8595 14.8194 26.4366 14.6602 26.9912 14.3418C27.5608 14.0233 28.0254 13.6366 28.3852 13.1818C28.5351 12.9847 28.7374 12.8861 28.9923 12.8861C29.0972 12.8861 29.2021 12.9088 29.307 12.9544C29.5169 13.0756 29.6518 13.2121 29.7117 13.3637C29.7867 13.5154 29.7792 13.7049 29.6893 13.9323C29.4494 14.4782 29.1272 14.9937 28.7225 15.4789C28.3177 15.9642 27.8456 16.3887 27.306 16.7527C26.7813 17.1014 26.2117 17.3819 25.5972 17.5942C24.9826 17.8065 24.3381 17.9126 23.6635 17.9126Z" fill="#333C4D"/>
<path d="M31.7221 2.44644C31.5123 2.44644 31.3249 2.37063 31.16 2.219C31.0101 2.05221 30.9352 1.85509 30.9352 1.62765C30.9352 1.43053 30.9952 1.25615 31.115 1.10452C31.2499 0.952895 31.4223 0.861916 31.6322 0.831591C31.932 0.786102 32.2917 0.733033 32.7114 0.672379C33.1461 0.611729 33.5958 0.551075 34.0605 0.490426C34.5401 0.41461 35.0123 0.338796 35.477 0.262981C35.9566 0.172004 36.3913 0.0886085 36.781 0.0127939C37.0658 -0.0326952 37.3057 0.0431193 37.5005 0.240238C37.5755 0.316052 37.6279 0.40703 37.6579 0.51317C37.7029 0.619309 37.7104 0.733033 37.6804 0.854336C37.6654 1.03629 37.6504 1.24099 37.6354 1.46843C37.6354 1.69588 37.6354 1.90058 37.6354 2.08253V6.38122C38.205 5.92633 38.7596 5.60792 39.2992 5.42595C39.8538 5.22883 40.4459 5.13026 41.0755 5.13026C42.3496 5.13026 43.3316 5.48659 44.0209 6.19925C44.7103 6.89675 45.055 7.87478 45.055 9.1333V14.3645C45.055 14.5464 45.0628 14.736 45.0774 14.9331C45.0925 15.1302 45.1301 15.3122 45.19 15.479C45.25 15.6458 45.3402 15.7898 45.4597 15.9111C45.5796 16.0172 45.7448 16.0855 45.9545 16.1158C46.1495 16.1461 46.3143 16.2295 46.4493 16.366C46.5839 16.4873 46.6516 16.6693 46.6516 16.9119C46.6516 17.0635 46.6214 17.1924 46.5615 17.2985C46.5015 17.3895 46.4269 17.4653 46.3367 17.526C46.247 17.5715 46.1495 17.6018 46.0446 17.6169C45.9545 17.6321 45.8794 17.6397 45.8195 17.6397C45.5649 17.6397 45.2651 17.6321 44.9204 17.6169C44.5904 17.6169 44.2608 17.6094 43.9308 17.5942C43.6012 17.5791 43.294 17.5639 43.0091 17.5487C42.7393 17.5487 42.5295 17.5487 42.3796 17.5487C42.2147 17.5487 41.9973 17.5487 41.7275 17.5487C41.4727 17.5639 41.2104 17.5791 40.9406 17.5942C40.6708 17.6094 40.4084 17.6169 40.1537 17.6169C39.9138 17.6321 39.7115 17.6397 39.5466 17.6397C39.3367 17.6397 39.1569 17.5791 39.007 17.4577C38.8721 17.3213 38.8046 17.1393 38.8046 16.9119C38.8046 16.7147 38.8496 16.5555 38.9395 16.4342C39.0294 16.2978 39.1868 16.1916 39.4117 16.1158C39.6365 16.04 39.7639 15.8808 39.7939 15.6382C39.8389 15.3956 39.8613 15.0696 39.8613 14.6602V8.74665C39.8613 8.23111 39.7939 7.9051 39.659 7.76862C39.5391 7.63217 39.3967 7.56393 39.2318 7.56393C39.007 7.56393 38.7372 7.6625 38.4224 7.85962C38.1076 8.0567 37.8453 8.29931 37.6354 8.58744V14.6602C37.6354 15.0696 37.6504 15.3956 37.6804 15.6382C37.7253 15.8808 37.8528 16.04 38.0626 16.1158C38.3024 16.1916 38.4673 16.2978 38.5573 16.4342C38.6472 16.5555 38.6922 16.7147 38.6922 16.9119C38.6922 17.1393 38.6172 17.3213 38.4673 17.4577C38.3324 17.5791 38.1601 17.6397 37.9502 17.6397C37.8003 17.6397 37.598 17.6321 37.3431 17.6169C37.0883 17.6169 36.826 17.6094 36.5562 17.5942C36.2864 17.5791 36.0166 17.5639 35.7468 17.5487C35.4919 17.5487 35.2821 17.5487 35.1172 17.5487C34.9673 17.5487 34.7575 17.5487 34.4876 17.5487C34.2179 17.5639 33.9256 17.5791 33.6108 17.5942C33.296 17.6094 32.9737 17.6169 32.644 17.6169C32.3292 17.6321 32.0444 17.6397 31.7896 17.6397C31.7296 17.6397 31.6472 17.6321 31.5423 17.6169C31.4523 17.6018 31.3624 17.5715 31.2725 17.526C31.1825 17.4653 31.1001 17.3895 31.0251 17.2985C30.9652 17.1924 30.9352 17.0635 30.9352 16.9119C30.9352 16.6541 31.0026 16.4646 31.1375 16.3433C31.2725 16.222 31.4373 16.1461 31.6322 16.1158C31.8121 16.0855 31.9545 16.0172 32.0594 15.9111C32.1793 15.7898 32.2618 15.6458 32.3067 15.479C32.3667 15.3122 32.4042 15.1302 32.4191 14.9331C32.4341 14.736 32.4416 14.5464 32.4416 14.3645V3.42445C32.4416 3.13636 32.3891 2.90133 32.2842 2.71938C32.1943 2.53742 32.0219 2.44644 31.7671 2.44644H31.7221Z" fill="#333C4D"/>
<path d="M54.177 6.67689C53.9522 6.67689 53.7499 6.74514 53.57 6.88158C53.4052 7.01806 53.2628 7.19999 53.1429 7.42743C53.0376 7.65488 52.9552 7.92025 52.8953 8.2235C52.8353 8.51158 52.7978 8.80727 52.7831 9.11052H55.054C55.1739 9.11052 55.2637 9.0802 55.3236 9.01956C55.3987 8.95892 55.4362 8.75419 55.4362 8.40546C55.4362 8.19318 55.4138 7.98849 55.3685 7.79137C55.3236 7.57908 55.2486 7.38955 55.1437 7.22275C55.054 7.05594 54.9263 6.92706 54.7615 6.8361C54.6118 6.72993 54.4168 6.67689 54.177 6.67689ZM54.4695 17.9126C53.5398 17.9126 52.6408 17.7686 51.771 17.4805C50.9169 17.1772 50.1598 16.7451 49.5002 16.184C48.841 15.623 48.316 14.9407 47.9264 14.137C47.5369 13.3334 47.3419 12.4312 47.3419 11.4305C47.3419 10.5207 47.5067 9.68674 47.8367 8.9286C48.1814 8.15525 48.6533 7.49568 49.253 6.94982C49.8677 6.38881 50.5869 5.94907 51.4113 5.63062C52.2508 5.31221 53.1653 5.14541 54.1545 5.13025C54.8741 5.13025 55.6084 5.23641 56.3581 5.4487C57.1075 5.66099 57.7818 5.97939 58.3814 6.40397C58.9961 6.81334 59.4905 7.32887 59.8654 7.95057C60.2554 8.57227 60.4426 9.30009 60.4275 10.134C60.4275 10.3008 60.3602 10.4449 60.2252 10.5662C60.1053 10.6875 59.9629 10.7481 59.7981 10.7481H52.7607V10.7936C52.7607 11.203 52.8055 11.6428 52.8953 12.1128C53.0005 12.5829 53.1727 13.0226 53.4125 13.432C53.6675 13.8262 54.0044 14.1598 54.4242 14.4327C54.859 14.6905 55.406 14.8194 56.0656 14.8194C56.6653 14.8194 57.2425 14.6602 57.7968 14.3418C58.3667 14.0233 58.8313 13.6366 59.1911 13.1818C59.3408 12.9847 59.5432 12.8861 59.7981 12.8861C59.9029 12.8861 60.0078 12.9088 60.1126 12.9544C60.3227 13.0756 60.4577 13.2121 60.5177 13.3637C60.5923 13.5154 60.585 13.7049 60.4948 13.9323C60.255 14.4782 59.9327 14.9937 59.5281 15.4789C59.1234 15.9642 58.6515 16.3887 58.1118 16.7527C57.5872 17.1014 57.0173 17.3819 56.403 17.5942C55.7882 17.8065 55.1437 17.9126 54.4695 17.9126Z" fill="#333C4D"/>
<path d="M6.02571 36C5.13302 36 4.31469 35.8639 3.57079 35.5916C2.8404 35.3057 2.21146 34.9108 1.68395 34.4071C1.15645 33.9033 0.743915 33.3042 0.446348 32.6099C0.148783 31.9019 0 31.1258 0 30.2817C0 29.3695 0.162309 28.5594 0.486926 27.8514C0.811541 27.1298 1.25789 26.5239 1.82597 26.0338C2.39405 25.5437 3.05681 25.1693 3.81426 24.9106C4.57168 24.6519 5.38323 24.5225 6.24888 24.5225C6.92518 24.5225 7.54735 24.5974 8.11541 24.7472C8.69703 24.8833 9.1975 25.0739 9.61677 25.319C10.0496 25.5641 10.3878 25.8568 10.6312 26.1972C10.8747 26.5376 10.9964 26.9052 10.9964 27.3C10.9964 27.7629 10.8409 28.1441 10.5298 28.4437C10.2322 28.7296 9.84671 28.8725 9.37333 28.8725C8.76467 28.8725 8.3048 28.7296 7.99372 28.4437C7.69614 28.1441 7.45943 27.7765 7.28359 27.3408C7.10775 26.9188 6.93868 26.5716 6.77639 26.2993C6.61406 26.0134 6.39767 25.8704 6.12713 25.8704C5.96484 25.8704 5.80255 25.9589 5.64021 26.1359C5.47792 26.2993 5.32913 26.5307 5.19389 26.8303C5.07215 27.1298 4.97072 27.4838 4.88953 27.8922C4.80839 28.3007 4.76784 28.75 4.76784 29.2401C4.76784 30.4791 5.02482 31.4594 5.53879 32.181C6.06626 32.889 6.78316 33.243 7.68936 33.243C8.17629 33.243 8.64293 33.0932 9.0893 32.7937C9.53563 32.4941 9.91435 32.1061 10.2254 31.6296C10.3472 31.439 10.523 31.3436 10.753 31.3436C10.7935 31.3436 10.8273 31.3505 10.8544 31.3641C10.895 31.3641 10.9356 31.3709 10.9761 31.3845C11.1655 31.4526 11.294 31.5683 11.3616 31.7317C11.4292 31.8951 11.4292 32.0653 11.3616 32.2422C11.1317 32.7869 10.8409 33.2906 10.4892 33.7535C10.1375 34.2164 9.73174 34.6181 9.27187 34.9585C8.82554 35.2852 8.32508 35.5371 7.77051 35.7141C7.22949 35.9047 6.64788 36 6.02571 36Z" fill="#333C4D"/>
<path d="M12.7734 35.755C12.7193 35.755 12.6449 35.7481 12.5502 35.7345C12.4691 35.7209 12.3879 35.6937 12.3068 35.6528C12.2256 35.5984 12.1512 35.5303 12.0836 35.4486C12.0295 35.3533 12.0024 35.2376 12.0024 35.1014C12.0024 34.8699 12.0633 34.6998 12.185 34.5909C12.3068 34.4819 12.4556 34.4139 12.6314 34.3866C12.7937 34.3594 12.9222 34.2981 13.0169 34.2028C13.1251 34.0939 13.1995 33.9646 13.2401 33.8148C13.2942 33.665 13.328 33.5016 13.3415 33.3247C13.355 33.1477 13.3618 32.9775 13.3618 32.8141V22.9908C13.3618 22.7458 13.3144 22.5415 13.2197 22.3782C13.1386 22.2012 12.983 22.1127 12.7531 22.1127H12.7125C12.5232 22.1127 12.3541 22.0446 12.2053 21.9085C12.0701 21.7723 12.0024 21.6021 12.0024 21.3979C12.0024 21.2072 12.0566 21.0507 12.1648 20.9282C12.2865 20.792 12.442 20.7103 12.6314 20.6831C12.9019 20.6423 13.2265 20.5946 13.6052 20.5401C13.9975 20.4857 14.4032 20.4312 14.8226 20.3768C15.2554 20.3087 15.6814 20.2406 16.1007 20.1725C16.5335 20.0908 16.9258 20.0159 17.2775 19.9479C17.5345 19.8798 17.7509 19.9479 17.9267 20.1521C17.9944 20.2202 18.0417 20.3019 18.0687 20.3972C18.1093 20.4925 18.1161 20.5878 18.089 20.6831C18.0755 20.8601 18.062 21.0507 18.0485 21.2549C18.0485 21.4592 18.0485 21.643 18.0485 21.8063V32.8141C18.0485 32.9775 18.0552 33.1477 18.0687 33.3247C18.0823 33.5016 18.1093 33.665 18.1499 33.8148C18.204 33.9646 18.2784 34.0939 18.373 34.2028C18.4677 34.2981 18.5962 34.3594 18.7585 34.3866C18.9344 34.4139 19.0832 34.4819 19.2049 34.5909C19.3266 34.6998 19.3875 34.8699 19.3875 35.1014C19.3875 35.2376 19.3537 35.3533 19.2861 35.4486C19.232 35.5303 19.1643 35.5984 19.0832 35.6528C19.002 35.6937 18.9141 35.7209 18.8194 35.7345C18.7383 35.7481 18.6706 35.755 18.6165 35.755C18.4001 35.755 18.1499 35.7481 17.8658 35.7345C17.5953 35.7345 17.3248 35.7277 17.0543 35.7141C16.7838 35.7005 16.5268 35.6868 16.2833 35.6733C16.0399 35.6733 15.8437 35.6733 15.6949 35.6733C15.5462 35.6733 15.35 35.6733 15.1066 35.6733C14.8631 35.6868 14.6061 35.7005 14.3356 35.7141C14.0651 35.7277 13.7879 35.7345 13.5038 35.7345C13.2333 35.7481 12.9898 35.755 12.7734 35.755Z" fill="#333C4D"/>
<path d="M26.0799 25.9113C25.877 25.9113 25.6944 25.9725 25.5321 26.0951C25.3833 26.2176 25.2548 26.381 25.1466 26.5852C25.0519 26.7894 24.9775 27.0277 24.9234 27.3C24.8693 27.5587 24.8355 27.8242 24.822 28.0965H26.8711C26.9793 28.0965 27.0605 28.0693 27.1146 28.0148C27.1822 27.9603 27.216 27.7765 27.216 27.4634C27.216 27.2728 27.1957 27.089 27.1551 26.912C27.1146 26.7214 27.0469 26.5511 26.9523 26.4014C26.8711 26.2517 26.7561 26.1359 26.6073 26.0542C26.4721 25.9589 26.2963 25.9113 26.0799 25.9113ZM26.3436 36C25.505 36 24.6935 35.8706 23.909 35.612C23.138 35.3397 22.455 34.9516 21.8598 34.4479C21.2647 33.9441 20.7913 33.3315 20.4396 32.6099C20.088 31.8883 19.9121 31.0782 19.9121 30.1796C19.9121 29.3627 20.0609 28.6139 20.3585 27.9331C20.6696 27.2387 21.0956 26.6465 21.6367 26.1563C22.1912 25.6526 22.8404 25.2577 23.5844 24.9718C24.3418 24.6859 25.1669 24.5362 26.0596 24.5225C26.7088 24.5225 27.3716 24.6178 28.0479 24.8084C28.7241 24.999 29.3328 25.285 29.8738 25.6662C30.4284 26.0338 30.8747 26.4967 31.2129 27.0549C31.5645 27.6131 31.7336 28.2667 31.7201 29.0155C31.7201 29.1653 31.6592 29.2946 31.5375 29.4035C31.4293 29.5125 31.3008 29.5669 31.152 29.5669H24.8017V29.6077C24.8017 29.9753 24.8423 30.3702 24.9234 30.7922C25.0181 31.2143 25.1736 31.6091 25.3901 31.9767C25.62 32.3308 25.9243 32.6303 26.303 32.8753C26.6953 33.1068 27.189 33.2226 27.7841 33.2226C28.3251 33.2226 28.8459 33.0796 29.3463 32.7937C29.8603 32.5077 30.2796 32.1606 30.6042 31.7521C30.7395 31.5751 30.9221 31.4866 31.152 31.4866C31.2467 31.4866 31.3414 31.507 31.4361 31.5479C31.6254 31.6568 31.7471 31.7794 31.8012 31.9155C31.8689 32.0516 31.8621 32.2218 31.781 32.426C31.5646 32.9162 31.2738 33.3791 30.9085 33.8148C30.5434 34.2505 30.1173 34.6317 29.6304 34.9585C29.157 35.2716 28.643 35.5235 28.0884 35.7141C27.5339 35.9047 26.9523 36 26.3436 36Z" fill="#333C4D"/>
<path d="M39.8208 29.3014L39.7193 29.3218C38.5561 29.7847 37.9745 30.6561 37.9745 31.9359C37.9745 32.3444 38.0286 32.6711 38.1368 32.9162C38.245 33.1613 38.4344 33.2838 38.7049 33.2838C38.8672 33.2838 39.0498 33.2226 39.2527 33.1C39.4691 32.9639 39.6585 32.7188 39.8208 32.3648V29.3014ZM42.5394 36C42.0525 36 41.6535 35.9455 41.3424 35.8366C41.0313 35.7277 40.7811 35.5916 40.5917 35.4282C40.4159 35.2512 40.2942 35.0674 40.2266 34.8768C40.1589 34.6861 40.1251 34.5092 40.1251 34.3458V34.1212C39.6923 34.8427 39.1783 35.3397 38.5832 35.612C38.0016 35.8706 37.3861 36 36.7369 36C36.2094 36 35.7293 35.9183 35.2964 35.755C34.8636 35.6052 34.4917 35.3941 34.1806 35.1219C33.8695 34.8495 33.626 34.5228 33.4502 34.1416C33.2878 33.7467 33.2067 33.3178 33.2067 32.8549C33.2067 32.2422 33.342 31.7045 33.6125 31.2415C33.8965 30.7787 34.2685 30.3702 34.7283 30.0162C35.1882 29.6622 35.7022 29.3559 36.2703 29.0972C36.8519 28.8249 37.4402 28.5866 38.0354 28.3824L39.8208 27.7289V26.8711C39.8208 26.5444 39.7734 26.3197 39.6788 26.1972C39.5841 26.061 39.4556 25.9929 39.2933 25.9929C39.0227 25.9929 38.7455 26.1155 38.4614 26.3606C38.1774 26.6056 37.9204 26.8983 37.6905 27.2387C37.3929 27.6472 37.048 28.0012 36.6558 28.3007C36.2771 28.5866 35.8036 28.7296 35.2356 28.7296C34.8027 28.7296 34.4511 28.607 34.1806 28.362C33.9236 28.1169 33.7951 27.7901 33.7951 27.3817C33.7951 27.0004 33.8898 26.6669 34.0791 26.381C34.282 26.0951 34.539 25.85 34.8501 25.6458C35.1747 25.4279 35.5399 25.2509 35.9457 25.1148C36.3514 24.965 36.7572 24.8493 37.163 24.7676C37.5688 24.6723 37.961 24.611 38.3397 24.5838C38.7184 24.543 39.0431 24.5225 39.3136 24.5225C40.9772 24.5225 42.2554 24.8833 43.1482 25.6049C44.0542 26.3129 44.5076 27.3204 44.5076 28.6275V33.1C44.5076 33.2498 44.5209 33.4199 44.5481 33.6106C44.5749 33.8012 44.6698 33.8965 44.832 33.8965C44.9942 33.8965 45.1499 33.8012 45.2988 33.6106C45.3932 33.4744 45.5287 33.4064 45.7043 33.4064C45.7992 33.4064 45.8734 33.4268 45.9277 33.4676C46.0494 33.5357 46.1305 33.6378 46.171 33.774C46.2116 33.8965 46.1982 34.019 46.1305 34.1416C45.7789 34.7543 45.2919 35.2171 44.6698 35.5303C44.0477 35.8434 43.3376 36 42.5394 36Z" fill="#333C4D"/>
<path d="M60.371 34.3866C60.547 34.4139 60.6959 34.4887 60.8175 34.6112C60.9392 34.7202 61 34.8836 61 35.1014C61 35.2376 60.9728 35.3533 60.9189 35.4486C60.8645 35.5303 60.7972 35.5984 60.7161 35.6528C60.6346 35.6936 60.547 35.7209 60.4521 35.7345C60.371 35.7481 60.3033 35.7549 60.2494 35.7549C60.0194 35.7549 59.7489 35.7481 59.4379 35.7345C59.1402 35.7345 58.8426 35.7277 58.5449 35.7141C58.2477 35.7005 57.9703 35.6868 57.7132 35.6732C57.4699 35.6732 57.2805 35.6732 57.145 35.6732C56.9962 35.6732 56.8003 35.6732 56.557 35.6732C56.3271 35.6868 56.0902 35.7005 55.8465 35.7141C55.6032 35.7277 55.3663 35.7345 55.1364 35.7345C54.9203 35.7481 54.7378 35.7549 54.589 35.7549C54.3996 35.7549 54.2369 35.7005 54.1019 35.5915C53.9803 35.469 53.9194 35.3056 53.9194 35.1014C53.9194 34.9244 53.96 34.7815 54.0411 34.6725C54.1222 34.55 54.2641 34.4547 54.4669 34.3866C54.6701 34.3185 54.7848 34.1756 54.812 33.9577C54.8525 33.7399 54.8728 33.4472 54.8728 33.0796V27.7697C54.8728 27.3068 54.812 27.0141 54.6903 26.8915C54.5821 26.7554 54.4535 26.6873 54.3047 26.6873C54.1019 26.6873 53.8586 26.7826 53.5743 26.9732C53.2904 27.1502 53.0536 27.368 52.8642 27.6268V33.0796C52.8642 33.4472 52.8776 33.7399 52.9048 33.9577C52.9453 34.1756 53.0605 34.3185 53.2499 34.3866C53.466 34.4547 53.6149 34.55 53.696 34.6725C53.7771 34.7815 53.818 34.9244 53.818 35.1014C53.818 35.3056 53.7503 35.469 53.6149 35.5915C53.4932 35.7005 53.3379 35.7549 53.1485 35.7549C53.0131 35.7549 52.8306 35.7481 52.6006 35.7345C52.3707 35.7345 52.1339 35.7277 51.8905 35.7141C51.6468 35.7005 51.4035 35.6868 51.1602 35.6732C50.9303 35.6732 50.7409 35.6732 50.592 35.6732C50.4566 35.6732 50.2672 35.6732 50.0239 35.6732C49.7806 35.6868 49.5166 35.7005 49.2327 35.7141C48.9484 35.7277 48.6576 35.7345 48.3604 35.7345C48.0761 35.7481 47.819 35.7549 47.5891 35.7549C47.5351 35.7549 47.4609 35.7481 47.366 35.7345C47.2849 35.7209 47.2038 35.6936 47.1227 35.6528C47.0416 35.5984 46.967 35.5303 46.8992 35.4486C46.8453 35.3533 46.8181 35.2376 46.8181 35.1014C46.8181 34.8699 46.879 34.6998 47.0011 34.5908C47.1227 34.4819 47.2715 34.4139 47.4471 34.3866C47.6093 34.3594 47.7379 34.2981 47.8328 34.2028C47.9411 34.0939 48.0153 33.9646 48.0558 33.8148C48.1102 33.665 48.1438 33.5016 48.1572 33.3246C48.171 33.1477 48.1775 32.9774 48.1775 32.8141V27.5655C48.1775 27.3204 48.1305 27.1162 48.0356 26.9528C47.9545 26.7894 47.7987 26.7077 47.5688 26.7077H47.5282C47.3388 26.7077 47.1697 26.6396 47.0213 26.5035C46.8859 26.3537 46.8181 26.1768 46.8181 25.9725C46.8181 25.7955 46.8725 25.6389 46.9808 25.5028C47.1024 25.3666 47.2577 25.285 47.4471 25.2577C47.7176 25.2169 48.0425 25.1692 48.4212 25.1148C48.8134 25.0603 49.2189 25.0058 49.6382 24.9514C50.0713 24.8833 50.4971 24.8152 50.9164 24.7472C51.3496 24.6655 51.7417 24.5906 52.0933 24.5225C52.3638 24.4817 52.5804 24.5497 52.7426 24.7268C52.8103 24.7948 52.8573 24.8765 52.8845 24.9718C52.925 25.0671 52.9319 25.1692 52.9048 25.2782C52.9048 25.3326 52.8983 25.3871 52.8845 25.4415C52.8845 25.496 52.8845 25.5572 52.8845 25.6253C53.3987 25.2305 53.8992 24.9514 54.3858 24.788C54.8728 24.611 55.4004 24.5225 55.9686 24.5225C57.1183 24.5225 58.0039 24.8425 58.6264 25.4824C59.2485 26.1086 59.5596 26.9868 59.5596 28.1169V32.8141C59.5596 32.9774 59.5665 33.1477 59.5798 33.3246C59.5932 33.5016 59.6273 33.665 59.6812 33.8148C59.7351 33.9646 59.8167 34.0939 59.9245 34.2028C60.0328 34.2981 60.1816 34.3594 60.371 34.3866Z" fill="#333C4D"/>
</g>
<defs>
<clipPath id="clip0_6_109">
<rect width="61" height="36" fill="white"/>
</clipPath>
</defs>
</svg>
